HIERARCHY
ROOT Hips
{
	OFFSET 0.00000 0.00000 0.00000
	CHANNELS 6 Xposition Yposition Zposition Zrotation Yrotation Xrotation 
	JOINT LHipJoint
	{
		OFFSET 0 0 0
		CHANNELS 3 Zrotation Yrotation Xrotation
		JOINT LeftUpLeg
		{
			OFFSET 1.84395 -1.68683 0.74144
			CHANNELS 3 Zrotation Yrotation Xrotation
			JOINT LeftLeg
			{
				OFFSET 2.27037 -6.23779 0.00000
				CHANNELS 3 Zrotation Yrotation Xrotation
				JOINT LeftFoot
				{
					OFFSET 2.56918 -7.05877 0.00000
					CHANNELS 3 Zrotation Yrotation Xrotation
					JOINT LeftToeBase
					{
						OFFSET 0.22276 -0.61202 1.71784
						CHANNELS 3 Zrotation Yrotation Xrotation
						End Site
						{
							OFFSET 0.00000 -0.00000 0.91613
						}
					}
				}
			}
		}
	}
	JOINT RHipJoint
	{
		OFFSET 0 0 0
		CHANNELS 3 Zrotation Yrotation Xrotation
		JOINT RightUpLeg
		{
			OFFSET -1.76833 -1.68684 0.74144
			CHANNELS 3 Zrotation Yrotation Xrotation
			JOINT RightLeg
			{
				OFFSET -2.49360 -6.85110 0.00000
				CHANNELS 3 Zrotation Yrotation Xrotation
				JOINT RightFoot
				{
					OFFSET -2.55538 -7.02085 0.00000
					CHANNELS 3 Zrotation Yrotation Xrotation
					JOINT RightToeBase
					{
						OFFSET -0.21516 -0.59115 1.68050
						CHANNELS 3 Zrotation Yrotation Xrotation
						End Site
						{
							OFFSET -0.00000 -0.00000 0.89604
						}
					}
				}
			}
		}
	}
	JOINT LowerBack
	{
		OFFSET 0 0 0
		CHANNELS 3 Zrotation Yrotation Xrotation
		JOINT Spine
		{
			OFFSET 0.06382 1.72312 -0.19613
			CHANNELS 3 Zrotation Yrotation Xrotation
			JOINT Spine1
			{
				OFFSET -0.00055 1.73507 0.23859
				CHANNELS 3 Zrotation Yrotation Xrotation
				JOINT Neck
				{
					OFFSET 0 0 0
					CHANNELS 3 Zrotation Yrotation Xrotation
					JOINT Neck1
					{
						OFFSET 0.03638 1.65562 0.09633
						CHANNELS 3 Zrotation Yrotation Xrotation
						JOINT Head
						{
							OFFSET 0.06388 1.62807 -0.32386
							CHANNELS 3 Zrotation Yrotation Xrotation
							End Site
							{
								OFFSET 0.00995 1.67644 -0.12021
							}
						}
					}
				}
				JOINT LeftShoulder
				{
					OFFSET 0 0 0
					CHANNELS 3 Zrotation Yrotation Xrotation
					JOINT LeftArm
					{
						OFFSET 3.09648 1.42991 0.28122
						CHANNELS 3 Zrotation Yrotation Xrotation
						JOINT LeftForeArm
						{
							OFFSET 5.11878 -0.00000 -0.00000
							CHANNELS 3 Zrotation Yrotation Xrotation
							JOINT LeftHand
							{
								OFFSET 3.59971 -0.00000 0.00000
								CHANNELS 3 Zrotation Yrotation Xrotation
								JOINT LeftFingerBase
								{
									OFFSET 0 0 0
									CHANNELS 3 Zrotation Yrotation Xrotation
									JOINT LeftHandIndex1
									{
										OFFSET 0.62877 -0.00000 0.00000
										CHANNELS 3 Zrotation Yrotation Xrotation
										End Site
										{
											OFFSET 0.50693 -0.00000 0.00000
										}
									}
								}
								JOINT LThumb
								{
									OFFSET 0 0 0
									CHANNELS 3 Zrotation Yrotation Xrotation
									End Site
									{
										OFFSET 0.51467 -0.00000 0.51467
									}
								}
							}
						}
					}
				}
				JOINT RightShoulder
				{
					OFFSET 0 0 0
					CHANNELS 3 Zrotation Yrotation Xrotation
					JOINT RightArm
					{
						OFFSET -3.33565 1.14597 0.05047
						CHANNELS 3 Zrotation Yrotation Xrotation
						JOINT RightForeArm
						{
							OFFSET -5.49020 -0.00000 0.00000
							CHANNELS 3 Zrotation Yrotation Xrotation
							JOINT RightHand
							{
								OFFSET -3.20659 -0.00000 -0.00000
								CHANNELS 3 Zrotation Yrotation Xrotation
								JOINT RightFingerBase
								{
									OFFSET 0 0 0
									CHANNELS 3 Zrotation Yrotation Xrotation
									JOINT RightHandIndex1
									{
										OFFSET -0.69188 -0.00000 0.00000
										CHANNELS 3 Zrotation Yrotation Xrotation
										End Site
										{
											OFFSET -0.55781 -0.00000 0.00000
										}
									}
								}
								JOINT RThumb
								{
									OFFSET 0 0 0
									CHANNELS 3 Zrotation Yrotation Xrotation
									End Site
									{
										OFFSET -0.56633 -0.00000 0.56633
									}
								}
							}
						}
					}
				}
			}
		}
	}
}
MOTION
Frames: 13
Frame Time: .0083333
-0.4717 17.5340 7.5216 -7.4835 -4.4352 5.5384 0.0000 0.0000 0.0000 -24.6253 -35.8285 27.7439 0.0591 -1.5681 -4.3136 -4.7486 42.6840 -44.6520 0.7294 5.4569 15.2165 0.0000 0.0000 0.0000 27.4383 21.6472 7.6337 -0.0252 -1.0251 2.8179 0.2576 -14.0383 -16.6496 -0.0106 0.6636 -1.8236 4.8552 1.5705 1.9408 0.4373 2.4617 -7.3986 -2.4797 0.8851 -8.7091 4.6191 1.3788 -12.0551 0.0828 0.7700 34.9997 -0.6638 0.9605 13.9523 0.0000 0.0000 0.0000 -76.9784 8.3174 62.2360 117.5144 -56.9367 -83.5831 -0.0000 0.0000 -13.1020 25.3158 -3.9571 -1.8697 -7.1250 0.0000 -0.0000 -0.9950 25.6038 0.4674 0.0000 0.0000 0.0000 63.9639 31.2279 84.3181 -109.4841 58.5158 -76.7896 0.0000 0.0000 42.6996 -28.0998 -25.4916 12.9418 7.1250 -0.0000 -0.0000 1.8289 -58.3650 -0.5980
-0.4704 17.5348 7.5232 -7.5174 -4.3743 5.5281 0.0000 0.0000 0.0000 -24.5859 -35.8211 27.7621 0.0600 -1.5803 -4.3471 -4.7532 42.6660 -44.5933 0.7249 5.4403 15.1688 0.0000 0.0000 0.0000 27.4765 21.6101 7.6347 -0.0254 -1.0298 2.8307 0.2564 -14.0423 -16.6731 -0.0091 0.6173 -1.6964 4.9043 1.5629 1.9295 0.4250 2.4518 -7.3601 -2.5180 0.8783 -8.6589 4.6656 1.4653 -12.1196 0.1349 0.8649 35.0846 -0.6358 1.0169 14.0090 -0.0000 -0.0000 0.0000 -76.9444 8.3283 62.1558 117.1169 -57.0305 -83.2498 -0.0000 0.0000 -13.0591 25.1584 -3.9473 -1.8518 -7.1250 0.0000 -0.0000 -1.1137 25.6202 0.5227 -0.0000 -0.0000 0.0000 64.2057 30.9654 84.6333 -109.7733 58.4699 -77.0362 0.0000 0.0000 42.1503 -26.8062 -26.3616 12.6454 7.1250 -0.0000 -0.0000 3.6213 -58.9798 -1.2382
-0.4698 17.5350 7.5236 -7.5414 -4.3270 5.5319 0.0000 0.0000 0.0000 -24.5083 -35.7901 27.7076 0.0603 -1.5846 -4.3589 -4.7243 42.5907 -44.5342 0.7292 5.4560 15.2137 0.0000 0.0000 0.0000 27.5021 21.5967 7.6162 -0.0258 -1.0374 2.8517 0.2564 -14.0538 -16.6941 -0.0091 0.6144 -1.6884 4.9448 1.5546 1.9049 0.4062 2.4383 -7.3054 -2.5575 0.8712 -8.5833 4.7659 1.5349 -12.2175 0.0925 0.9509 35.1185 -0.6567 1.0628 14.0507 0.0000 0.0000 0.0000 -76.9033 8.3306 62.0482 116.7667 -57.1117 -82.9559 -0.0000 0.0000 -12.9005 25.0354 -4.1622 -1.9415 -7.1250 0.0000 -0.0000 -1.2096 25.3876 0.5743 0.0000 0.0000 0.0000 64.5077 30.7189 84.9448 -110.0272 58.4289 -77.2525 0.0000 0.0000 41.6485 -25.6179 -27.1384 12.3376 7.1250 -0.0000 -0.0000 5.3019 -59.5158 -1.8826
-0.4701 17.5349 7.5211 -7.5238 -4.2783 5.5371 0.0000 0.0000 0.0000 -24.4300 -35.7395 27.5772 0.0597 -1.5767 -4.3373 -4.7122 42.5015 -44.3781 0.7197 5.4212 15.1139 0.0000 0.0000 0.0000 27.4694 21.5786 7.5643 -0.0264 -1.0499 2.8860 0.2549 -14.0513 -16.7108 -0.0084 0.5927 -1.6288 4.8847 1.5379 1.9446 0.4071 2.4133 -7.2724 -2.5216 0.8639 -8.5740 4.9416 1.6189 -12.1004 -0.0338 1.0831 34.9300 -0.7188 1.1239 13.9459 -0.0000 0.0000 0.0000 -76.8658 8.3790 61.9648 116.5051 -57.1715 -82.7361 -0.0000 0.0000 -12.3658 24.9701 -4.3732 -2.0336 -7.1250 0.0000 -0.0000 -1.2620 25.1576 0.6059 -0.0000 0.0000 0.0000 64.8197 30.4660 85.2441 -110.2222 58.3970 -77.4187 0.0000 0.0000 41.1797 -24.3967 -27.8311 11.9556 7.1250 -0.0000 -0.0000 7.0172 -59.9413 -2.5663
-0.4701 17.5346 7.5205 -7.5080 -4.2645 5.5398 0.0000 0.0000 0.0000 -24.4268 -35.7301 27.5412 0.0594 -1.5730 -4.3269 -4.7288 42.5046 -44.3196 0.7109 5.3884 15.0198 0.0000 0.0000 0.0000 27.4454 21.5681 7.5525 -0.0264 -1.0497 2.8855 0.2551 -14.0519 -16.7096 -0.0073 0.5524 -1.5179 4.8120 1.5371 1.9642 0.4175 2.4084 -7.2382 -2.4698 0.8682 -8.5507 5.0237 1.6701 -12.0898 -0.0928 1.1601 34.8597 -0.7453 1.1594 13.9157 0.0000 -0.0000 0.0000 -76.7946 8.4515 61.9736 116.2939 -57.2193 -82.5586 -0.0000 0.0000 -11.5706 24.9695 -4.4954 -2.0903 -7.1250 0.0000 -0.0000 -1.2644 25.0230 0.6110 0.0000 -0.0000 0.0000 65.1366 30.1625 85.4715 -110.3386 58.3778 -77.5178 0.0000 0.0000 40.7614 -23.1478 -28.3661 11.4816 7.1250 -0.0000 -0.0000 8.7086 -60.1875 -3.2411
-0.4694 17.5345 7.5230 -7.5432 -4.2844 5.5533 0.0000 0.0000 0.0000 -24.4443 -35.7693 27.6117 0.0598 -1.5784 -4.3418 -4.7363 42.5569 -44.4097 0.7182 5.4157 15.0980 0.0000 0.0000 0.0000 27.4787 21.5508 7.5528 -0.0261 -1.0431 2.8674 0.2516 -14.0240 -16.7119 -0.0084 0.5910 -1.6240 4.7838 1.5593 1.9291 0.4571 2.4361 -7.2078 -2.4129 0.8873 -8.4969 5.0022 1.6911 -12.1093 -0.0794 1.1921 34.8586 -0.7310 1.1727 13.9202 -0.0000 -0.0000 0.0000 -76.7527 8.5136 62.0691 116.0633 -57.2708 -82.3647 -0.0000 0.0000 -10.7936 25.0036 -4.7148 -2.1953 -7.1250 0.0000 -0.0000 -1.2425 24.7800 0.6075 -0.0000 -0.0000 0.0000 65.4291 29.7688 85.6238 -110.0965 58.4176 -77.3116 0.0000 0.0000 40.3557 -21.9407 -29.2411 11.1320 7.1250 -0.0000 -0.0000 10.5754 -60.7855 -4.0950
-0.4693 17.5345 7.5254 -7.5938 -4.3220 5.5913 0.0000 0.0000 0.0000 -24.4368 -35.8367 27.6785 0.0604 -1.5858 -4.3623 -4.7481 42.6286 -44.5277 0.7231 5.4335 15.1494 0.0000 0.0000 0.0000 27.5288 21.5794 7.5304 -0.0262 -1.0446 2.8716 0.2489 -14.0026 -16.7155 -0.0088 0.6059 -1.6650 4.7781 1.5845 1.9098 0.4957 2.4716 -7.2167 -2.3715 0.9067 -8.4945 4.9605 1.6924 -12.0408 -0.0556 1.2026 34.8154 -0.7129 1.1745 13.8850 -0.0000 0.0000 0.0000 -76.7170 8.6320 62.1442 115.8406 -57.3201 -82.1773 -0.0000 0.0000 -10.2400 24.9804 -4.9960 -2.3234 -7.1250 0.0000 -0.0000 -1.2650 24.4712 0.6275 -0.0000 0.0000 0.0000 65.8146 29.2248 85.7770 -109.1483 58.5682 -76.5032 0.0000 0.0000 39.9457 -20.6774 -31.1609 11.0503 7.1250 -0.0000 -0.0000 13.2880 -62.3753 -5.6654
-0.4703 17.5349 7.5273 -7.5902 -4.3681 5.6411 0.0000 0.0000 0.0000 -24.4655 -35.9162 27.7134 0.0609 -1.5920 -4.3793 -4.7908 42.7338 -44.6018 0.7153 5.4048 15.0669 0.0000 0.0000 0.0000 27.5259 21.6722 7.5255 -0.0259 -1.0391 2.8564 0.2571 -14.0539 -16.6836 -0.0092 0.6189 -1.7008 4.7743 1.6023 1.9039 0.4665 2.4935 -7.2387 -2.4022 0.9157 -8.5124 5.0957 1.7057 -11.9436 -0.1378 1.2213 34.7229 -0.7674 1.1880 13.8248 0.0000 -0.0000 0.0000 -76.5827 8.7804 62.1589 115.6604 -57.3596 -82.0255 -0.0000 0.0000 -9.9670 24.9995 -5.1806 -2.4110 -7.1250 0.0000 -0.0000 -1.2545 24.2672 0.6282 0.0000 -0.0000 0.0000 66.3941 28.6289 86.1238 -107.6971 58.7829 -75.2635 0.0000 0.0000 38.4555 -19.8416 -33.6131 11.2965 7.1250 -0.0000 -0.0000 16.2426 -64.5262 -7.7754
-0.4709 17.5356 7.5298 -7.6003 -4.4241 5.6685 0.0000 0.0000 0.0000 -24.4468 -35.9155 27.7102 0.0613 -1.5980 -4.3959 -4.8030 42.7718 -44.6414 0.7092 5.3824 15.0026 0.0000 0.0000 0.0000 27.5439 21.7425 7.5534 -0.0253 -1.0260 2.8205 0.2639 -14.0887 -16.6444 -0.0113 0.6864 -1.8862 4.7857 1.6084 1.9822 0.4391 2.5073 -7.2929 -2.4426 0.9168 -8.6157 5.2526 1.7290 -11.8840 -0.2138 1.2439 34.7173 -0.8224 1.2081 13.8129 -0.0000 -0.0000 0.0000 -76.4227 9.0198 62.1408 115.5830 -57.3765 -81.9604 -0.0000 0.0000 -9.9526 25.1412 -5.2384 -2.4535 -7.1250 0.0000 -0.0000 -1.1501 24.1969 0.5778 -0.0000 -0.0000 0.0000 67.1297 28.0804 86.6747 -108.1469 58.7184 -75.6480 0.0000 0.0000 31.3078 -17.6234 -36.2219 10.6316 7.1250 -0.0000 -0.0000 21.4782 -66.3335 -11.2729
-0.4705 17.5357 7.5329 -7.6480 -4.5045 5.6692 0.0000 0.0000 0.0000 -24.3879 -35.8442 27.7129 0.0619 -1.6051 -4.4156 -4.7589 42.7423 -44.7451 0.7198 5.4215 15.1148 0.0000 0.0000 0.0000 27.6059 21.7649 7.5970 -0.0247 -1.0154 2.7912 0.2587 -14.0482 -16.6503 -0.0142 0.7698 -2.1156 4.8214 1.6041 2.1187 0.4402 2.5151 -7.3691 -2.4684 0.9121 -8.7789 5.2573 1.7623 -11.8316 -0.1298 1.2654 34.7787 -0.7866 1.2302 13.8297 0.0000 0.0000 0.0000 -76.2943 9.3634 62.0698 115.6569 -57.3604 -82.0227 -0.0000 0.0000 -9.9597 25.3461 -5.2573 -2.4853 -7.1250 0.0000 -0.0000 -0.9978 24.1662 0.5020 0.0000 0.0000 0.0000 67.9227 27.5417 87.0712 -108.8604 58.6123 -76.2575 0.0000 0.0000 23.3762 -15.2873 -37.8467 9.5201 7.1250 -0.0000 -0.0000 26.1521 -67.0937 -14.3090
-0.4702 17.5356 7.5348 -7.6568 -4.5913 5.6760 0.0000 0.0000 0.0000 -24.3987 -35.8119 27.7457 0.0626 -1.6144 -4.4412 -4.7221 42.7426 -44.8881 0.7461 5.5176 15.3909 0.0000 0.0000 0.0000 27.6159 21.7889 7.6239 -0.0241 -1.0015 2.7529 0.2534 -14.0066 -16.6565 -0.0147 0.7835 -2.1534 4.9495 1.6174 2.1968 0.3424 2.5406 -7.4122 -2.6493 0.9082 -8.8626 5.2421 1.7714 -11.7790 0.0349 1.2282 34.7791 -0.7238 1.2337 13.8168 -0.0000 0.0000 0.0000 -76.0795 9.6051 62.0010 115.7737 -57.3348 -82.1210 -0.0000 0.0000 -9.8265 25.5297 -5.3180 -2.5347 -7.1250 0.0000 -0.0000 -0.8626 24.0902 0.4354 -0.0000 0.0000 0.0000 68.7060 27.0001 87.9585 -109.7057 58.4807 -76.9785 0.0000 0.0000 16.9923 -16.4572 -40.4401 10.8471 7.1250 -0.0000 -0.0000 28.6290 -69.6614 -17.3819
-0.4704 17.5355 7.5359 -7.6382 -4.6883 5.6924 0.0000 0.0000 0.0000 -24.4857 -35.8439 27.8346 0.0634 -1.6251 -4.4706 -4.7120 42.8071 -45.0727 0.7647 5.5842 15.5825 0.0000 0.0000 0.0000 27.5869 21.8007 7.6188 -0.0238 -0.9951 2.7353 0.2519 -13.9593 -16.5959 -0.0159 0.8131 -2.2348 5.1092 1.6546 2.2927 0.1889 2.5976 -7.4566 -2.9108 0.9148 -8.9522 5.3002 1.7341 -11.7754 0.0817 1.1399 34.8040 -0.7286 1.2091 13.8255 -0.0000 -0.0000 0.0000 -75.8452 9.7424 61.9760 115.8972 -57.3076 -82.2249 -0.0000 0.0000 -9.7137 25.6377 -5.3674 -2.5705 -7.1250 0.0000 -0.0000 -0.7835 24.0303 0.3966 -0.0000 -0.0000 0.0000 69.4878 26.4895 88.2384 -109.8665 58.4549 -77.1157 0.0000 0.0000 16.1095 -15.5678 -42.3073 10.6212 7.1250 -0.0000 -0.0000 32.9409 -70.8805 -21.0469
-0.4711 17.5348 7.5373 -7.6280 -4.7944 5.7137 0.0000 0.0000 0.0000 -24.5814 -35.8967 27.9245 0.0631 -1.6212 -4.4600 -4.6470 42.8277 -45.3652 0.7799 5.6384 15.7389 0.0000 0.0000 0.0000 27.5478 21.7480 7.5662 -0.0239 -0.9985 2.7448 0.2465 -13.8493 -16.4858 -0.0233 0.9846 -2.7066 5.1934 1.6877 2.5080 0.0862 2.6583 -7.5727 -3.0837 0.9240 -9.1964 5.3606 1.7019 -11.7937 0.0827 1.0726 34.9231 -0.7488 1.1897 13.8822 0.0000 0.0000 0.0000 -75.7235 9.9284 61.9444 116.0222 -57.2800 -82.3301 -0.0000 0.0000 -9.7216 25.6602 -5.4115 -2.5941 -7.1250 0.0000 -0.0000 -0.7680 23.9803 0.3896 0.0000 0.0000 0.0000 70.1605 25.8981 88.5399 -109.6672 58.4868 -76.9458 0.0000 0.0000 16.6441 -14.9835 -43.6586 10.4684 7.1250 -0.0000 -0.0000 36.3165 -71.7187 -24.0136
